<svg width="34" height="22" viewBox="0 0 34 22" fill="none" xmlns="http://www.w3.org/2000/svg">
<path d="M33 0C32.4477 0 32 0.447716 32 1V21C32 21.5523 32.4477 22 33 22C33.5523 22 34 21.5523 34 21V1C34 0.447715 33.5523 0 33 0Z"/>
<path d="M2 17H9L16.1056 20.5528C17.4354 21.2177 19 20.2507 19 18.764V5.2361C19 3.74934 17.4354 2.78235 16.1056 3.44725L9.00005 7.00001L2 7C0.895432 7 0 7.89543 0 9V15C0 16.1046 0.895431 17 2 17Z"/>
<path d="M23 8C22.4477 8 22 8.44772 22 9V15C22 15.5523 22.4477 16 23 16C23.5523 16 24 15.5523 24 15V9C24 8.44772 23.5523 8 23 8Z"/>
<path d="M27 5C27 4.44772 27.4477 4 28 4C28.5523 4 29 4.44772 29 5V19C29 19.5523 28.5523 20 28 20C27.4477 20 27 19.5523 27 19V5Z"/>
</svg>
