<svg width="20" height="20" viewBox="0 0 20 20" fill="none" xmlns="http://www.w3.org/2000/svg">
<path d="M3.94 6.5L2.22 3.64L3.64 2.22L6.5 3.94C7.02 3.64 7.6 3.4 8.2 3.24L9 0H11L11.8 3.24C12.4 3.4 12.98 3.64 13.5 3.94L16.36 2.22L17.78 3.64L16.06 6.5C16.36 7.02 16.6 7.6 16.76 8.2L20 9V11L16.76 11.8C16.6 12.4 16.36 12.98 16.06 13.5L17.78 16.36L16.36 17.78L13.5 16.06C12.98 16.36 12.4 16.6 11.8 16.76L11 20H9L8.2 16.76C7.6 16.6 7.02 16.36 6.5 16.06L3.64 17.78L2.22 16.36L3.94 13.5C3.64 12.98 3.4 12.4 3.24 11.8L0 11V9L3.24 8.2C3.4 7.6 3.64 7.02 3.94 6.5ZM10 13C10.7956 13 11.5587 12.6839 12.1213 12.1213C12.6839 11.5587 13 10.7956 13 10C13 9.20435 12.6839 8.44129 12.1213 7.87868C11.5587 7.31607 10.7956 7 10 7C9.20435 7 8.44129 7.31607 7.87868 7.87868C7.31607 8.44129 7 9.20435 7 10C7 10.7956 7.31607 11.5587 7.87868 12.1213C8.44129 12.6839 9.20435 13 10 13Z" fill="inherit"/>
</svg>
