<svg width="14" height="14" viewBox="0 0 36 36" fill="none" xmlns="http://www.w3.org/2000/svg">
<g id="icon-delete">
<path id="Path" d="M35.2286 0.771429C34.2 -0.257143 32.6571 -0.257143 31.6286 0.771429L18 14.4L4.37143 0.771429C3.34286 -0.257143 1.8 -0.257143 0.771429 0.771429C-0.257143 1.8 -0.257143 3.34286 0.771429 4.37143L14.4 18L0.771429 31.6286C-0.257143 32.6571 -0.257143 34.2 0.771429 35.2286C1.28571 35.7429 1.8 36 2.57143 36C3.34286 36 3.85714 35.7429 4.37143 35.2286L18 21.6L31.6286 35.2286C32.1429 35.7429 32.9143 36 33.4286 36C33.9429 36 34.7143 35.7429 35.2286 35.2286C36.2571 34.2 36.2571 32.6571 35.2286 31.6286L21.6 18L35.2286 4.37143C36.2571 3.34286 36.2571 1.8 35.2286 0.771429Z" fill="inherit"/>
</g>
</svg>
