<svg width="48" height="54" viewBox="0 0 48 54" fill="none" xmlns="http://www.w3.org/2000/svg">
<g id="icon-drag">
<path id="Path" d="M33 43.5L24 52.5L15 43.5H33Z" fill="inherit"/>
<path id="Path_2" d="M15 10.5L24 1.5L33 10.5L15 10.5Z" fill="inherit"/>
<path id="Path_3" d="M0 15.6V20.4C0 20.7312 5.376 21 12 21H36C42.624 21 48 20.7312 48 20.4V15.6C48 15.2688 42.624 15 36 15L12 15C5.376 15 0 15.2688 0 15.6Z" fill="inherit"/>
<path id="Path_4" d="M0 24.6V29.4C0 29.7312 5.376 30 12 30H36C42.624 30 48 29.7312 48 29.4V24.6C48 24.2688 42.624 24 36 24L12 24C5.376 24 0 24.2688 0 24.6Z" fill="inherit"/>
<path id="Path_5" d="M0 33.6V38.4C0 38.7312 5.376 39 12 39H36C42.624 39 48 38.7312 48 38.4V33.6C48 33.2688 42.624 33 36 33H12C5.376 33 0 33.2688 0 33.6Z" fill="inherit"/>
</g>
</svg>
