<svg width="20" height="20" viewBox="0 0 20 20" fill="none" xmlns="http://www.w3.org/2000/svg">
<path d="M4 2H20L17 11H4C3.73478 11 3.48043 11.1054 3.29289 11.2929C3.10536 11.4804 3 11.7348 3 12C3 12.2652 3.10536 12.5196 3.29289 12.7071C3.48043 12.8946 3.73478 13 4 13H17V15H4C3.20435 15 2.44129 14.6839 1.87868 14.1213C1.31607 13.5587 1 12.7956 1 12C1 11.2044 1.31607 10.4413 1.87868 9.87868C2.44129 9.31607 3.20435 9 4 9H4.33L3 5L2 2H0V0H3C3.26522 0 3.51957 0.105357 3.70711 0.292893C3.89464 0.48043 4 0.734784 4 1V2ZM5 20C4.46957 20 3.96086 19.7893 3.58579 19.4142C3.21071 19.0391 3 18.5304 3 18C3 17.4696 3.21071 16.9609 3.58579 16.5858C3.96086 16.2107 4.46957 16 5 16C5.53043 16 6.03914 16.2107 6.41421 16.5858C6.78929 16.9609 7 17.4696 7 18C7 18.5304 6.78929 19.0391 6.41421 19.4142C6.03914 19.7893 5.53043 20 5 20ZM15 20C14.4696 20 13.9609 19.7893 13.5858 19.4142C13.2107 19.0391 13 18.5304 13 18C13 17.4696 13.2107 16.9609 13.5858 16.5858C13.9609 16.2107 14.4696 16 15 16C15.5304 16 16.0391 16.2107 16.4142 16.5858C16.7893 16.9609 17 17.4696 17 18C17 18.5304 16.7893 19.0391 16.4142 19.4142C16.0391 19.7893 15.5304 20 15 20Z" fill="inherit"/>
</svg>
