<svg width="30" height="30" viewBox="0 0 30 30" fill="none" xmlns="http://www.w3.org/2000/svg">
<path fill-rule="evenodd" clip-rule="evenodd" d="M21.9997 18.7497C23.2636 16.8374 24 14.5418 24 12.0732C24 5.40537 18.6274 0 12 0C5.37258 0 0 5.40537 0 12.0732C0 18.7411 5.37258 24.1464 12 24.1464C14.5475 24.1464 16.9097 23.3478 18.8525 21.9857L26.1592 29.337C27.0378 30.221 28.4625 30.221 29.3411 29.337C30.2198 28.4529 30.2198 27.0196 29.3411 26.1356L22.0231 18.7729C22.0154 18.7651 22.0076 18.7574 21.9997 18.7497ZM12 19C15.866 19 19 15.866 19 12C19 8.13401 15.866 5 12 5C8.13401 5 5 8.13401 5 12C5 15.866 8.13401 19 12 19Z" fill="black"/>
</svg>
