<svg width="40" height="40" viewBox="0 0 40 40" fill="none" xmlns="http://www.w3.org/2000/svg">
<path fill-rule="evenodd" clip-rule="evenodd" d="M29.3328 24.9996C31.018 22.4499 31.9998 19.3891 31.9998 16.0976C31.9998 7.20716 24.8364 0 15.9999 0C7.16341 0 0 7.20716 0 16.0976C0 24.9881 7.16341 32.1953 15.9999 32.1953C19.3966 32.1953 22.5461 31.1304 25.1365 29.3143L34.8787 39.116C36.0503 40.2947 37.9498 40.2947 39.1213 39.116C40.2929 37.9372 40.2929 36.0261 39.1213 34.8474L29.364 25.0305C29.3537 25.0201 29.3433 25.0098 29.3328 24.9996ZM15.9999 25.3333C21.1546 25.3333 25.3332 21.1547 25.3332 16C25.3332 10.8454 21.1546 6.66667 15.9999 6.66667C10.8453 6.66667 6.66663 10.8454 6.66663 16C6.66663 21.1547 10.8453 25.3333 15.9999 25.3333Z"/>
</svg>
