<svg viewBox="0 0 937 129" fill="none" xmlns="http://www.w3.org/2000/svg">
<path d="M645.661 126.679C645.661 120.378 645.496 114.243 645.496 107.942C645.496 101.807 645.661 95.5064 645.661 89.3715C632.464 89.7031 617.286 89.8689 605.903 89.8689C605.738 82.0758 605.738 73.1221 605.738 64.3342C605.903 36.8098 606.233 11.6067 606.563 2.32134H564C564.495 14.2596 564.495 35.9807 564.495 64.5C564.495 91.0296 564 116.564 564 126.679H645.661Z" fill="#FF6D6B"/>
<path d="M700.472 126.679C700.142 108.605 700.142 90.6979 700.142 64.3342C700.142 37.8046 700.142 19.8972 700.472 2.32134H658.569C659.064 20.063 659.064 37.9704 659.064 64.5C659.064 90.8638 659.064 108.771 658.569 126.679H700.472Z" fill="#FF6D6B"/>
<path d="M772.86 101.973C758.178 101.973 753.723 98.1594 753.723 88.3766V86.0553C750.094 86.3869 745.145 86.3869 739.701 86.3869C731.947 86.3869 723.698 85.8895 718.254 85.392C717.924 88.3766 717.759 91.3612 717.759 94.18C717.759 117.891 731.122 129 774.84 129C815.918 129 829.941 115.404 829.941 90.6979C829.941 66.8213 818.228 56.0437 784.243 50.9036C759.992 47.2558 757.023 42.2815 757.023 35.8149C757.023 30.3432 760.817 26.6954 774.18 26.6954C788.698 26.6954 793.482 29.5141 793.482 38.1362C793.482 39.2969 793.482 40.4576 793.317 41.6183C796.781 41.4524 802.225 41.4524 807.834 41.4524C814.928 41.4524 823.012 41.6183 827.961 41.9499C828.126 39.2969 828.291 36.8098 828.291 34.4884C828.291 8.4563 815.588 0 773.025 0C733.927 0 718.254 12.4357 718.254 36.644C718.254 58.6967 727.493 71.2982 765.271 76.4383C787.378 79.5887 791.502 84.3972 791.502 91.8586C791.502 98.1594 787.378 101.973 772.86 101.973Z" fill="#FF6D6B"/>
<path d="M838.017 2.32134C838.182 6.96401 838.182 13.7622 838.182 20.063C838.182 26.198 838.182 33.4936 838.017 38.4679C847.75 38.1362 857.483 38.1362 866.557 37.9704C866.557 78.428 866.392 117.725 865.897 126.844C871.836 126.347 880.909 126.347 887.673 126.347C894.107 126.347 903.511 126.347 909.285 126.844C908.79 117.725 908.625 78.428 908.625 37.9704C917.533 38.1362 927.267 38.1362 937 38.4679C936.835 33.4936 936.835 26.198 936.835 20.063C936.835 13.7622 936.835 6.7982 937 2.32134H838.017Z" fill="#FF6D6B"/>
<path d="M55.4217 94.5116C50.1118 94.5116 45.7976 94.5116 40.9855 94.18C40.8196 86.7185 40.8196 77.4332 40.8196 64.8316C40.8196 54.054 40.8196 43.1105 41.1515 32.9962C45.7976 32.6645 50.6096 32.4987 55.7536 32.4987C72.181 32.4987 79.1502 36.4781 79.1502 62.6761C79.1502 89.8689 72.015 94.5116 55.4217 94.5116ZM57.9107 126.679C103.376 126.679 119.97 110.927 119.97 61.1838C119.97 14.7571 101.219 2.32134 58.7404 2.32134H0C0.331866 18.5707 0.4978 38.3021 0.4978 64.6658C0.4978 91.0296 0.331866 109.269 0 126.679H57.9107Z" fill="white"/>
<path d="M260.555 62.3445C260.555 17.41 236.163 0 195.841 0C155.354 0 131.625 17.41 131.625 62.3445C131.625 107.279 153.031 129 195.675 129C238.32 129 260.555 107.279 260.555 62.3445ZM195.841 95.5064C181.073 95.5064 173.275 85.5578 173.275 62.8419C173.275 40.4576 181.073 31.6697 195.841 31.6697C210.609 31.6697 218.242 40.7892 218.242 62.8419C218.242 85.2262 210.775 95.5064 195.841 95.5064Z" fill="white"/>
<path d="M298.497 2.32134C299.99 13.928 299.99 47.919 299.99 76.6041C299.99 84.8946 295.676 88.874 288.541 88.874C282.07 88.874 277.921 87.3817 273.607 85.2262C273.275 93.0193 270.786 117.725 269.791 124.026C279.249 127.01 290.698 128.171 300.488 128.171C331.02 128.171 341.142 110.098 341.142 84.8946C341.142 61.3496 340.644 43.7738 340.644 36.4781C340.644 23.8766 340.644 14.4255 340.81 2.32134H298.497Z" fill="white"/>
<path d="M403.992 126.679C403.66 108.605 403.66 90.6979 403.66 64.3342C403.66 37.8046 403.66 19.8972 403.992 2.32134H361.845C362.342 20.063 362.342 37.9704 362.342 64.5C362.342 90.8638 362.342 108.771 361.845 126.679H403.992Z" fill="white"/>
<path d="M544.834 126.679C544.502 110.595 544.502 91.8586 544.502 64.3342C544.502 37.9704 544.668 14.2596 545 2.32134H509.324C509.822 12.4357 510.486 33.162 510.486 51.401C510.652 59.3599 511.15 68.3136 511.813 77.7648L511.647 77.9306C509.158 70.1375 506.172 62.8419 502.853 56.2095C491.901 36.3123 475.474 10.2802 472.155 2.32134H425.528C425.86 18.7365 425.86 38.1362 425.86 64.5C425.86 91.0296 425.694 110.098 425.528 126.679H462.033C461.702 119.715 461.702 103.134 461.37 78.7596C461.204 68.9769 460.706 59.3599 459.876 48.5823L460.374 48.4165C463.195 56.8727 466.68 65.329 470.828 73.7853C482.775 92.8535 497.211 115.569 502.521 126.679H544.834Z" fill="white"/>
</svg>
